<svg id="Layer_1" data-name="Layer 1" xmlns="http://www.w3.org/2000/svg" viewBox="0 0 24 24"><defs><style>.cls-1{fill:#4f4f4f;}</style></defs><title>icons</title><path class="cls-1" d="M4,19V5H15.5V9h2V5a2,2,0,0,0-2-2H4A2,2,0,0,0,2,5V19a2,2,0,0,0,2,2H9V19H4Z"/><path class="cls-1" d="M20,11H13a2,2,0,0,0-2,2v7a2,2,0,0,0,2,2h7a2,2,0,0,0,2-2V13A2,2,0,0,0,20,11Zm-2.75,9h-1.5V18.5h1.5Zm0-3.15h-1.5v-4h1.5Z"/><rect class="cls-1" x="6" y="15.01" width="3" height="2"/><rect class="cls-1" x="6" y="11" width="3" height="2"/><rect class="cls-1" x="6" y="7" width="7.5" height="2"/></svg>