<svg width="26px" height="19px" viewBox="0 0 26 19" version="1.1" xmlns="http://www.w3.org/2000/svg" xmlns:xlink="http://www.w3.org/1999/xlink">
    <g id="Symbols" stroke="none" stroke-width="1" fill="none" fill-rule="evenodd">
        <g id="icon-cloud-security" transform="translate(-7.000000, -10.000000)" fill="#F6F6F6" fill-rule="nonzero">
            <path d="M12.6145028,14.0226513 C14.4512635,11.1657925 17.663645,9.61948092 20.9386099,10.0804984 C24.1118521,10.5271964 26.7637022,12.7768068 27.8990856,15.8871618 L27.8990856,15.8871618 L27.9769993,16.1110866 L28.1894205,16.158733 C31.0248198,16.8379094 33.0369972,19.5791148 32.9147143,22.6950183 L32.9147143,22.6950183 L32.9015205,22.9293873 C32.6436475,26.4453881 29.5491041,29.1831895 26.2456653,28.9034622 L26.2456653,28.9034622 L13.9163886,28.902049 C10.2953863,28.8279708 7.31484179,25.8577095 7.02317806,22.033654 C6.73865539,18.3032263 9.10245871,14.9393551 12.5264906,14.1379405 L12.5264906,14.1379405 L12.5449993,14.1330866 Z M20.4133426,11.950859 C17.8390439,11.6956623 15.3360376,13.0467082 13.9902679,15.4601716 L13.9902679,15.4601716 L13.7635162,15.8668212 L13.3037913,15.9405322 C10.638002,16.3679569 8.71432019,18.9599436 8.93761776,21.8876382 C9.16036661,24.8081383 11.4395387,27.0218391 14.1395803,26.9828537 L14.1395803,26.9828537 L26.3257509,26.9868045 C28.6297017,27.1795612 30.8058494,25.2542819 30.9866637,22.7889465 C31.1701567,20.2870885 29.4381915,18.1228352 27.1553404,17.9318437 L27.1553404,17.9318437 L26.4802809,17.8753658 L26.3072301,17.2204242 C25.5649923,14.4112936 23.3436146,12.3579817 20.6709699,11.9817529 L20.6709699,11.9817529 Z M19.9600473,15.9600866 L23.9599993,17.4352643 L23.9599993,19.4023252 C23.9595312,20.621648 23.5742032,21.8105823 22.8579099,22.8063272 C22.1417127,23.8016119 21.129124,24.5539525 19.9599993,24.9600866 C18.7908985,24.5539997 17.7783818,23.8016119 17.0620886,22.8063272 C16.3457953,21.8105232 15.9604685,20.621648 15.9599993,19.4023252 L15.9599993,19.4023252 L15.9599993,17.4352643 L19.9600473,15.9600866 Z"></path>
        </g>
    </g>
</svg>
