<svg id="Layer_1" data-name="Layer 1" xmlns="http://www.w3.org/2000/svg" viewBox="0 0 24 24"><defs><style>.cls-1{fill:#4f4f4f;}</style></defs><title>icons</title><path class="cls-1" d="M10.9,19H5V5h5.9V3H5A2,2,0,0,0,3,5V19a2,2,0,0,0,2,2h5.9Z"/><polygon class="cls-1" points="18.3 13.69 16.89 15.1 18.17 16.39 14.85 16.39 11.83 13.37 8 13.37 8 15.37 11 15.37 14.02 18.39 18.17 18.39 16.89 19.59 18.3 21 22 17.39 18.3 13.69"/><polygon class="cls-1" points="18.3 10.31 16.89 8.9 18.17 7.61 14.85 7.61 11.83 10.63 8 10.63 8 8.63 11 8.63 14.02 5.61 18.17 5.61 16.89 4.41 18.3 3 22 6.61 18.3 10.31"/></svg>