<svg xmlns="http://www.w3.org/2000/svg" viewBox="0 0 24 24"><defs><style>.cls-1{fill:#4f4f4f;}</style></defs><title>icons</title><g id="Layer_40" data-name="Layer 40"><path class="cls-1" d="M20,2a2,2,0,0,0-2,2,2,2,0,0,0,.26,1L16.57,7.09A2.05,2.05,0,0,0,16,7a2,2,0,0,0-1.36.54L11.59,6.1s0-.06,0-.1a2,2,0,0,0-4,0,1.87,1.87,0,0,0,.2.85L4.7,10.23A2,2,0,1,0,6,12.1a1.87,1.87,0,0,0-.2-.85L8.9,7.87A2,2,0,0,0,11,7.46L14,8.9S14,9,14,9a2,2,0,1,0,4,0,2,2,0,0,0-.26-1l1.69-2.12A2.05,2.05,0,0,0,20,6a2,2,0,0,0,0-4Z"/><polygon class="cls-1" points="6.77 18.02 6.77 20.61 9.01 21.9 11.25 20.61 11.25 18.02 9.01 16.73 6.77 18.02"/><polygon class="cls-1" points="12.75 18.02 12.75 20.61 14.99 21.9 17.23 20.61 17.23 18.02 14.99 16.73 12.75 18.02"/><polygon class="cls-1" points="14.24 12.89 12 11.6 9.76 12.89 9.76 15.48 12 16.77 14.24 15.48 14.24 12.89"/></g></svg>