<svg  xmlns="http://www.w3.org/2000/svg" viewBox="0 0 24 24"><defs><style>.cls-1{fill:#4f4f4f;}</style></defs><polygon points="15.89 8.7 18.17 11 13 11 13 13 18.17 13 15.89 15.3 17.3 16.71 22 12 17.3 7.29 15.89 8.7"/><path d="M20,2H2V4H20V7h2V4A2,2,0,0,0,20,2Z"/><path d="M20,20V20H2v2H20A2,2,0,0,0,22,20V17H20Z"/><polygon points="2.05 12.79 2.05 15.13 4.07 16.3 6.09 15.13 6.09 12.79 4.07 11.63 2.05 12.79"/><polygon points="7.45 15.13 9.48 16.3 11.5 15.13 11.5 12.79 9.48 11.63 7.45 12.79 7.45 15.13"/><polygon points="4.75 8.15 4.75 10.49 6.77 11.66 8.8 10.49 8.8 8.15 6.77 6.99 4.75 8.15"/></svg>
