<svg xmlns="http://www.w3.org/2000/svg" viewBox="0 0 24 24"><defs><style>.cls-1{fill:#4f4f4f;}</style></defs><title>icons</title><g id="Layer_1" data-name="Layer 1"><path class="cls-1" d="M20,7h2V4a2,2,0,0,0-2-2H2V4H20Z"/><path class="cls-1" d="M20,20V20H2v2H20A2,2,0,0,0,22,20V17H20Z"/></g><g id="Layer_40" data-name="Layer 40"><polygon class="cls-1" points="17.3 16.7 22 12 17.3 7.3 15.89 8.71 18.17 11 13 11 13 13 18.17 13 15.89 15.29 17.3 16.7"/><rect class="cls-1" x="2" y="7.5" width="9.5" height="2"/><rect class="cls-1" x="2" y="11" width="9.5" height="2"/><rect class="cls-1" x="2" y="14.5" width="6" height="2"/></g></svg>