<svg xmlns="http://www.w3.org/2000/svg" viewBox="0 0 24 24"><g ><rect x="7.2" y="13" width="9.5" height="2"/><rect x="7.2" y="16.5" width="9.5" height="2"/><rect x="7.2" y="20" width="5.3" height="2"/><path d="M20,2a2,2,0,0,0-2,2,2,2,0,0,0,.26,1L16.57,7.09A2.05,2.05,0,0,0,16,7a2,2,0,0,0-1.36.54L11.59,6.1s0-.06,0-.1a2,2,0,0,0-4,0,1.87,1.87,0,0,0,.2.85L4.7,10.23A2,2,0,1,0,6,12.1a1.87,1.87,0,0,0-.2-.85L8.9,7.87A2,2,0,0,0,11,7.46L14,8.9S14,9,14,9a2,2,0,1,0,4,0,2,2,0,0,0-.26-1l1.69-2.12A2.05,2.05,0,0,0,20,6a2,2,0,0,0,0-4Z"/></g></svg>
