<svg width="24" height="24" viewBox="0 0 24 24" fill="none" xmlns="http://www.w3.org/2000/svg">
<path d="M15.9 4.99999C15.73 4.99999 15.58 5.08999 15.49 5.22999L15.42 5.37999L10.24 17.03C10.08 17.32 9.98 17.64 9.98 17.99C9.98 19.1 10.88 20 11.99 20C12.95 20 13.76 19.32 13.95 18.41L13.96 18.38L16.4 5.49999C16.4 5.21999 16.18 4.99999 15.9 4.99999V4.99999ZM1 8.99999L3 11C5.88 8.11999 9.79 6.91999 13.53 7.37999L14.72 4.69999C9.89 3.83999 4.74 5.26999 1 8.99999ZM21 11L23 8.99999C21.36 7.35999 19.45 6.17999 17.41 5.42999L16.88 8.24999C18.38 8.86999 19.78 9.77999 21 11ZM17 15L19 13C18.2 12.2 17.3 11.58 16.34 11.11L15.79 14.03C16.21 14.3 16.62 14.62 17 15ZM5 13L7 15C8.13 13.87 9.56 13.21 11.03 13L12.31 10.12C9.68 10.04 7.01 10.99 5 13V13Z" fill="#4F4F4F"/>
</svg>
