<svg  xmlns="http://www.w3.org/2000/svg" viewBox="0 0 24 24"><defs><style>.cls-1{fill:#4f4f4f;}</style></defs><path d="M12,2,4,5.64v6A11.05,11.05,0,0,0,12,22a11.05,11.05,0,0,0,8-10.41V5.64Zm3.65,13.48-1.42-.57a3.39,3.39,0,0,1-.82.48L13.2,16.9H10.8l-.21-1.5a3.53,3.53,0,0,1-.82-.48l-1.42.57L7.16,13.42l1.2-.94a3.86,3.86,0,0,1,0-1l-1.2-.94L8.35,8.52l1.42.57a3.79,3.79,0,0,1,.82-.49l.21-1.5h2.4l.21,1.5a3.53,3.53,0,0,1,.82.48l1.42-.57,1.19,2.07h0l-1.2.94a3.86,3.86,0,0,1,0,1l1.2.94Z"/><polygon points="12 22 12 22 12 22 12 22"/><circle cx="12" cy="12" r="1.5"/></svg>
