<svg id="Layer_1" data-name="Layer 1" xmlns="http://www.w3.org/2000/svg" viewBox="0 0 24 24"><defs><style>.cls-1{fill:#4f4f4f;}</style></defs><title>icons</title><rect class="cls-1" x="11" y="3.21" width="11" height="3"/><rect class="cls-1" x="11" y="10.5" width="11" height="3"/><rect class="cls-1" x="11" y="17.81" width="11" height="3"/><polygon class="cls-1" points="4.91 11.98 3.36 10.43 2 11.79 3.55 13.34 3.55 13.34 4.91 14.69 4.91 14.69 4.91 14.69 6.26 13.34 6.26 13.34 8.94 10.66 7.58 9.31 4.91 11.98"/><polygon class="cls-1" points="4.91 4.69 3.36 3.14 2 4.49 3.55 6.04 3.55 6.04 4.91 7.4 4.91 7.4 4.91 7.4 6.26 6.04 6.26 6.04 8.94 3.37 7.58 2.01 4.91 4.69"/><polygon class="cls-1" points="6.83 16.61 5.49 17.95 4.16 16.61 2.8 17.97 4.14 19.31 2.8 20.64 4.16 22 5.49 20.66 6.83 22 8.19 20.64 6.85 19.31 8.19 17.97 6.83 16.61"/></svg>