<svg width="24" height="24" viewBox="0 0 24 24" fill="none" xmlns="http://www.w3.org/2000/svg">
<path d="M10.0001 6.35V4.26C9.34011 4.43 8.71011 4.69 8.12011 5.01L9.62011 6.51C9.75011 6.46 9.87011 6.4 10.0001 6.35V6.35ZM20.0001 12C20.0001 9.79 19.0901 7.8 17.6401 6.36L20.0001 4H14.0001V10L16.2401 7.76C17.3201 8.85 18.0001 10.34 18.0001 12C18.0001 12.85 17.8101 13.65 17.4901 14.38L18.9901 15.88C19.6301 14.74 20.0001 13.41 20.0001 12ZM4.27011 4L2.86011 5.41L5.22011 7.77C4.45011 8.99 4.00011 10.44 4.00011 12C4.00011 14.21 4.91011 16.2 6.36011 17.64L4.00011 20H10.0001V14L7.76011 16.24C6.68011 15.15 6.00011 13.66 6.00011 12C6.00011 11 6.25011 10.06 6.68011 9.23L14.7601 17.31C14.5101 17.44 14.2601 17.55 14.0001 17.65V19.74C14.8001 19.53 15.5501 19.2 16.2301 18.78L18.8101 21.36L20.2201 19.95L4.27011 4Z" fill="#4F4F4F"/>
</svg>
